<svg xmlns="http://www.w3.org/2000/svg" width="1280" height="720" viewBox="0 0 1280 720">
  <defs>
    <filter id="grain" x="0" y="0" width="100%" height="100%">
      <feTurbulence type="fractalNoise" baseFrequency="0.9" numOctaves="2" stitchTiles="stitch"/>
      <feColorMatrix type="matrix" values="0 0 0 0 1  0 0 0 0 1  0 0 0 0 1  0 0 0 0.04 0"/>
      <feComposite operator="over" in2="SourceGraphic"/>
    </filter>
  </defs>
  <g filter="url(#grain)">
  <rect width="1280" height="720" fill="#090D16"/>
  <defs>
    <radialGradient id="gw" cx="45%" cy="40%" r="85%">
      <stop offset="0%" stop-color="#152038"/>
      <stop offset="100%" stop-color="#06080F"/>
    </radialGradient>
  </defs>
  <rect width="1280" height="720" fill="url(#gw)"/>
  <g fill="#DDE6F2" opacity="0.7">
    <circle cx="140" cy="120" r="2"/><circle cx="360" cy="80" r="2"/><circle cx="600" cy="160" r="2"/>
    <circle cx="840" cy="60" r="2"/><circle cx="1080" cy="140" r="2"/><circle cx="1200" cy="300" r="2"/>
    <circle cx="240" cy="420" r="2"/><circle cx="1020" cy="480" r="2"/>
  </g>
  <circle cx="640" cy="380" r="150" fill="#101828" stroke="#5FA8E8" stroke-width="8"/>
  <ellipse cx="640" cy="380" rx="250" ry="60" fill="none" stroke="#F5C542" stroke-width="7"/>
  <g fill="#1B2C46" stroke="#5FA8E8" stroke-width="5">
    <path d="M300 300 l60 20 l-60 20 z"/>
    <path d="M980 420 l-60 20 l60 20 z"/>
    <path d="M400 560 l50 -16 l0 32 z"/>
  </g>
  <circle cx="640" cy="380" r="60" fill="#0A0F1A" stroke="#F5C542" stroke-width="6"/>
  undefined
  <rect width="1280" height="720" fill="none" stroke="#272A30" stroke-width="4"/>
  </g>
</svg>
